<svg width="270" height="270" viewBox="0 0 270 270" fill="none" xmlns="http://www.w3.org/2000/svg">
<path d="M210.213 166.488C214.686 166.488 219.097 166.961 223.445 167.906C227.795 168.851 231.707 170.302 235.178 172.259L235.301 172.328L235.247 172.457L228.553 188.577L228.489 188.733L228.338 188.658C225.078 187.028 221.914 185.806 218.846 184.992H218.845C215.841 184.178 212.9 183.772 210.024 183.772C207.894 183.772 206.214 183.96 204.978 184.331C203.738 184.703 202.858 185.193 202.319 185.79C201.839 186.391 201.602 187.048 201.602 187.762C201.602 188.815 202.209 189.681 203.493 190.355L204.001 190.584C205.232 191.107 206.777 191.561 208.64 191.945C210.84 192.385 213.229 192.856 215.805 193.359H215.804C218.451 193.863 221.067 194.557 223.651 195.439C226.24 196.323 228.61 197.492 230.759 198.946H230.758C232.978 200.405 234.755 202.308 236.087 204.655C237.423 207.01 238.087 209.93 238.087 213.406C238.087 217.46 236.914 221.199 234.571 224.618C232.289 227.978 228.87 230.698 224.325 232.781L224.324 232.782C219.773 234.805 214.061 235.812 207.196 235.812C201.653 235.812 196.298 235.182 191.132 233.921C185.968 232.662 181.71 231.023 178.361 229.001L178.243 228.93L178.299 228.803L185.464 212.587L185.534 212.427L185.686 212.515C188.817 214.331 192.293 215.803 196.116 216.931H196.115C199.999 217.996 203.755 218.528 207.385 218.528C209.251 218.528 210.75 218.432 211.885 218.242L212.349 218.154C213.589 217.843 214.467 217.444 215.005 216.969C215.542 216.431 215.806 215.811 215.806 215.102C215.806 213.982 215.194 213.086 213.911 212.414C212.609 211.732 210.865 211.169 208.674 210.731L208.669 210.73C206.534 210.228 204.179 209.726 201.604 209.223L201.6 209.222C199.018 208.655 196.404 207.931 193.76 207.049H193.759C191.17 206.165 188.769 204.997 186.557 203.543L186.556 203.543C184.399 202.083 182.653 200.179 181.322 197.834L181.321 197.832C179.985 195.414 179.322 192.433 179.322 188.894C179.322 184.778 180.462 181.039 182.743 177.681H182.744C185.089 174.259 188.539 171.539 193.086 169.518L193.522 169.332C198.058 167.434 203.623 166.488 210.213 166.488Z" fill="white" stroke="white" stroke-width="0.314251"/>
<path d="M128.617 167.996V203.789C128.617 208.805 129.527 212.339 131.311 214.433C133.1 216.469 135.506 217.49 138.546 217.49C141.651 217.49 144.056 216.469 145.781 214.436V214.435C147.566 212.341 148.477 208.806 148.477 203.789V167.996H170.664V204.449C170.664 214.348 167.825 222.061 162.13 227.566C156.437 233.069 148.505 235.812 138.358 235.812C128.211 235.812 120.28 233.069 114.586 227.566C108.892 222.061 106.053 214.348 106.053 204.449V167.996H128.617Z" fill="white" stroke="white" stroke-width="0.314251"/>
<path d="M53.7871 167.996L53.834 168.066L64.9268 184.454L75.7266 168.067L75.7734 167.996H100.11L99.9316 168.245L77.0654 200.046L101.346 234.055L101.523 234.303H75.6787L75.6318 234.232L64.3486 216.795L53.3652 234.23L53.3184 234.303H27.5664L27.7441 234.055L51.5254 200.82L28.5918 168.244L28.418 167.996H53.7871Z" fill="white" stroke="white" stroke-width="0.314251"/>
<path d="M165.455 92.576V109.672H133.685V117.088H161.59V133.429H133.685V141.788H166.681V158.883H111.498V92.576H165.455Z" fill="white" stroke="white" stroke-width="0.314251"/>
<path d="M52.3633 92.576L52.4102 92.6326L77.21 122.308V92.576H99.207V158.883H80.6875L80.6396 158.827L55.8408 129.151V158.883H33.8428V92.576H52.3633Z" fill="white" stroke="white" stroke-width="0.314251"/>
<rect x="6" y="6" width="258" height="258" stroke="white" stroke-width="11.9415"/>
</svg>
